<mxfile host="app.diagrams.net" modified="2024-09-04T03:53:40.728Z" agent="Mozilla/5.0 (Macintosh; Intel Mac OS X 10_15_7) AppleWebKit/537.36 (KHTML, like Gecko) Chrome/126.0.0.0 Safari/537.36" etag="MCqs0BrcaIvyx4ZAJG_D" version="24.7.3" type="github">
  <diagram name="第 1 页" id="o16jT8s6Q-hIHPiViAWH">
    <mxGraphModel dx="908" dy="604" grid="1" gridSize="10" guides="1" tooltips="1" connect="1" arrows="1" fold="1" page="1" pageScale="1" pageWidth="827" pageHeight="1169" math="0" shadow="0">
      <root>
        <mxCell id="0" />
        <mxCell id="1" parent="0" />
        <mxCell id="NYipR0PiHKViFvUqOCkT-19" value="" style="group" vertex="1" connectable="0" parent="1">
          <mxGeometry x="176" y="100" width="380.5" height="550" as="geometry" />
        </mxCell>
        <mxCell id="NYipR0PiHKViFvUqOCkT-14" value="" style="rounded=0;whiteSpace=wrap;html=1;dashed=1;container=1;" vertex="1" parent="NYipR0PiHKViFvUqOCkT-19">
          <mxGeometry x="0.5" y="230" width="380" height="130" as="geometry" />
        </mxCell>
        <mxCell id="NYipR0PiHKViFvUqOCkT-1" value="db_inst_tags" style="shape=cylinder3;whiteSpace=wrap;html=1;boundedLbl=1;backgroundOutline=1;size=15;" vertex="1" parent="NYipR0PiHKViFvUqOCkT-19">
          <mxGeometry x="140.5" y="470" width="100" height="80" as="geometry" />
        </mxCell>
        <mxCell id="NYipR0PiHKViFvUqOCkT-3" value="dbaas-hybrid-db" style="rounded=1;whiteSpace=wrap;html=1;" vertex="1" parent="NYipR0PiHKViFvUqOCkT-19">
          <mxGeometry x="44" y="270" width="120" height="60" as="geometry" />
        </mxCell>
        <mxCell id="NYipR0PiHKViFvUqOCkT-5" value="dbaas-hybrid-db" style="rounded=1;whiteSpace=wrap;html=1;" vertex="1" parent="NYipR0PiHKViFvUqOCkT-19">
          <mxGeometry x="208" y="270" width="120" height="60" as="geometry" />
        </mxCell>
        <mxCell id="NYipR0PiHKViFvUqOCkT-12" style="edgeStyle=orthogonalEdgeStyle;rounded=0;orthogonalLoop=1;jettySize=auto;html=1;" edge="1" parent="NYipR0PiHKViFvUqOCkT-19" source="NYipR0PiHKViFvUqOCkT-7">
          <mxGeometry relative="1" as="geometry">
            <mxPoint x="190.5" y="230" as="targetPoint" />
          </mxGeometry>
        </mxCell>
        <mxCell id="NYipR0PiHKViFvUqOCkT-7" value="&lt;font style=&quot;font-size: 8px;&quot;&gt;vip: 11.23.12.139:21001/GetTagsData&lt;/font&gt;" style="rounded=0;whiteSpace=wrap;html=1;" vertex="1" parent="NYipR0PiHKViFvUqOCkT-19">
          <mxGeometry x="114" y="160" width="153" height="30" as="geometry" />
        </mxCell>
        <mxCell id="NYipR0PiHKViFvUqOCkT-10" style="edgeStyle=orthogonalEdgeStyle;rounded=0;orthogonalLoop=1;jettySize=auto;html=1;exitX=0.55;exitY=0.95;exitDx=0;exitDy=0;exitPerimeter=0;" edge="1" parent="NYipR0PiHKViFvUqOCkT-19" source="NYipR0PiHKViFvUqOCkT-8">
          <mxGeometry relative="1" as="geometry">
            <mxPoint x="190" y="160" as="targetPoint" />
          </mxGeometry>
        </mxCell>
        <mxCell id="NYipR0PiHKViFvUqOCkT-8" value="cmq" style="ellipse;shape=cloud;whiteSpace=wrap;html=1;" vertex="1" parent="NYipR0PiHKViFvUqOCkT-19">
          <mxGeometry x="124" width="120" height="80" as="geometry" />
        </mxCell>
        <mxCell id="NYipR0PiHKViFvUqOCkT-9" style="edgeStyle=orthogonalEdgeStyle;rounded=0;orthogonalLoop=1;jettySize=auto;html=1;exitX=0.5;exitY=0;exitDx=0;exitDy=0;entryX=0.55;entryY=0.95;entryDx=0;entryDy=0;entryPerimeter=0;" edge="1" parent="NYipR0PiHKViFvUqOCkT-19" source="NYipR0PiHKViFvUqOCkT-7" target="NYipR0PiHKViFvUqOCkT-8">
          <mxGeometry relative="1" as="geometry" />
        </mxCell>
        <mxCell id="NYipR0PiHKViFvUqOCkT-11" value="register all region" style="text;html=1;align=center;verticalAlign=middle;resizable=0;points=[];autosize=1;strokeColor=none;fillColor=none;" vertex="1" parent="NYipR0PiHKViFvUqOCkT-19">
          <mxGeometry x="130.5" y="98" width="120" height="30" as="geometry" />
        </mxCell>
        <mxCell id="NYipR0PiHKViFvUqOCkT-16" value="all region" style="text;html=1;align=center;verticalAlign=middle;resizable=0;points=[];autosize=1;strokeColor=none;fillColor=none;" vertex="1" parent="NYipR0PiHKViFvUqOCkT-19">
          <mxGeometry x="155.5" y="398" width="70" height="30" as="geometry" />
        </mxCell>
        <mxCell id="NYipR0PiHKViFvUqOCkT-17" value="ap-guangzhou" style="text;html=1;align=center;verticalAlign=middle;whiteSpace=wrap;rounded=0;" vertex="1" parent="NYipR0PiHKViFvUqOCkT-19">
          <mxGeometry y="230" width="104" height="30" as="geometry" />
        </mxCell>
        <mxCell id="NYipR0PiHKViFvUqOCkT-18" style="edgeStyle=orthogonalEdgeStyle;rounded=0;orthogonalLoop=1;jettySize=auto;html=1;exitX=0.5;exitY=1;exitDx=0;exitDy=0;entryX=0.5;entryY=0;entryDx=0;entryDy=0;entryPerimeter=0;" edge="1" parent="NYipR0PiHKViFvUqOCkT-19" source="NYipR0PiHKViFvUqOCkT-14" target="NYipR0PiHKViFvUqOCkT-1">
          <mxGeometry relative="1" as="geometry" />
        </mxCell>
      </root>
    </mxGraphModel>
  </diagram>
</mxfile>
